<svg width="48" height="42" viewBox="0 0 48 42" fill="none" xmlns="http://www.w3.org/2000/svg">
<path d="M1 2C1 1.44772 1.44772 1 2 1H46C46.5523 1 47 1.44772 47 2V32.875C47 33.4273 46.5523 33.875 46 33.875H2C1.44772 33.875 1 33.4273 1 32.875V2Z" stroke="#F57B23" stroke-opacity="0.95" stroke-width="2"/>
<path fill-rule="evenodd" clip-rule="evenodd" d="M16.0568 39.1023C15.4732 39.1023 15 39.5754 15 40.1591C15 40.7427 15.4732 41.2159 16.0568 41.2159H31.9432C32.5268 41.2159 33 40.7427 33 40.1591C33 39.5754 32.5268 39.1023 31.9432 39.1023H16.0568Z" fill="white"/>
<path d="M16 40.1591C16 40.1277 16.0254 40.1023 16.0568 40.1023H31.9432C31.9746 40.1023 32 40.1277 32 40.1591C32 40.1905 31.9746 40.2159 31.9432 40.2159H16.0568C16.0254 40.2159 16 40.1905 16 40.1591Z" stroke="#F57B23" stroke-opacity="0.95" stroke-width="2"/>
<path d="M29.8748 40.2159H18.1253L18.8887 33.7614H29.1113L29.8748 40.2159Z" stroke="#F57B23" stroke-opacity="0.95" stroke-width="2"/>
</svg>
