<svg width="51" height="38" viewBox="0 0 51 38" fill="none" xmlns="http://www.w3.org/2000/svg">
<path d="M6 2C6 1.44772 6.44772 1 7 1H43C43.5523 1 44 1.44772 44 2V31.7778C44 32.3301 43.5523 32.7778 43 32.7778H7C6.44771 32.7778 6 32.3301 6 31.7778V2Z" stroke="#F57B23" stroke-opacity="0.95" stroke-width="2"/>
<path d="M1.22938 33.8535C1.11221 33.2373 1.58459 32.6667 2.21177 32.6667H48.0034C48.6521 32.6667 49.1291 33.2748 48.9746 33.9048L48.4024 36.2382C48.2927 36.6855 47.8917 37 47.4312 37H2.65549C2.17524 37 1.76281 36.6586 1.67309 36.1868L1.22938 33.8535Z" stroke="#F57B23" stroke-opacity="0.95" stroke-width="2"/>
</svg>
