<svg width="51" height="38" viewBox="0 0 51 38" fill="none" xmlns="http://www.w3.org/2000/svg">
<path d="M6 2C6 1.44772 6.44772 1 7 1H43C43.5523 1 44 1.44772 44 2V31.7778C44 32.3301 43.5523 32.7778 43 32.7778H7C6.44771 32.7778 6 32.3301 6 31.7778V2Z" stroke="#F5A623" stroke-width="2"/>
<path d="M1.22926 33.8534C1.11209 33.2373 1.58447 32.6666 2.21165 32.6666H48.0033C48.652 32.6666 49.129 33.2748 48.9745 33.9048L48.4023 36.2381C48.2926 36.6854 47.8916 37 47.4311 37H2.65536C2.17512 37 1.76268 36.6586 1.67297 36.1868L1.22926 33.8534Z" stroke="#F5A623" stroke-width="2"/>
</svg>
