<svg id="Capa_1" enable-background="new 0 0 512 512" height="512" viewBox="0 0 512 512" width="512" xmlns="http://www.w3.org/2000/svg"><g><g><path d="m512 512h-512v-512h512z" fill="#474f54"/></g><path d="m256 0h256v512h-256z" fill="#32393f"/><g id="Night_Mode_1_"><g><path d="m256 457.211-58.931-58.931h-83.35v-83.35l-58.93-58.93 58.931-58.931v-83.35h83.35l58.93-58.93 58.931 58.931h83.35v83.35l58.93 58.93-58.931 58.931v83.35h-83.35z" fill="#fed843"/></g></g><path d="m314.931 398.28h83.349v-83.349l58.931-58.931-58.931-58.931v-83.349h-83.349l-58.931-58.931v402.422z" fill="#fabe2c"/><g><path d="m256 346c-42.682 0-64.009-28.722-80.098-39.287l30.205-6.973c20.538-4.731 34.893-22.719 34.893-43.74s-14.355-39.009-34.893-43.74l-30.205-6.973c16.236-10.662 37.432-39.287 80.098-39.287 49.629 0 90 40.371 90 90s-40.371 90-90 90z" fill="#474f54"/></g><path d="m346 256c0-49.629-40.371-90-90-90v180c49.629 0 90-40.371 90-90z" fill="#32393f"/></g></svg>