<svg width="17" height="28" viewBox="0 0 17 28" fill="none" xmlns="http://www.w3.org/2000/svg">
<path d="M0.8 1.64578C0.8 1.20395 1.15817 0.845776 1.6 0.845776H15.4C15.8418 0.845776 16.2 1.20395 16.2 1.64578V26.3C16.2 26.7418 15.8418 27.1 15.4 27.1H1.6C1.15817 27.1 0.8 26.7418 0.8 26.3V1.64578Z" stroke="#BCBCBC" stroke-width="1.6"/>
<mask id="path-2-inside-1" fill="white">
<ellipse cx="8.50003" cy="24.4182" rx="1.13333" ry="1.16059"/>
</mask>
<ellipse cx="8.50003" cy="24.4182" rx="1.13333" ry="1.16059" fill="white"/>
<path d="M8.03337 24.4182C8.03337 24.2115 8.20666 23.9788 8.50003 23.9788V27.1788C10.0452 27.1788 11.2334 25.9067 11.2334 24.4182H8.03337ZM8.50003 23.9788C8.7934 23.9788 8.9667 24.2115 8.9667 24.4182H5.7667C5.7667 25.9067 6.95482 27.1788 8.50003 27.1788V23.9788ZM8.9667 24.4182C8.9667 24.6248 8.7934 24.8576 8.50003 24.8576V21.6576C6.95482 21.6576 5.7667 22.9296 5.7667 24.4182H8.9667ZM8.50003 24.8576C8.20666 24.8576 8.03337 24.6248 8.03337 24.4182H11.2334C11.2334 22.9296 10.0452 21.6576 8.50003 21.6576V24.8576Z" fill="#BCBCBC" mask="url(#path-2-inside-1)"/>
<mask id="path-4-inside-2" fill="white">
<path fill-rule="evenodd" clip-rule="evenodd" d="M1.1333 20.9364V22.097H15.8666V20.9364H1.1333Z"/>
</mask>
<path fill-rule="evenodd" clip-rule="evenodd" d="M1.1333 20.9364V22.097H15.8666V20.9364H1.1333Z" fill="white"/>
<path d="M1.1333 20.9364V19.3364H-0.466699V20.9364H1.1333ZM1.1333 22.097H-0.466699V23.697H1.1333V22.097ZM15.8666 22.097V23.697H17.4666V22.097H15.8666ZM15.8666 20.9364H17.4666V19.3364H15.8666V20.9364ZM-0.466699 20.9364V22.097H2.7333V20.9364H-0.466699ZM1.1333 23.697H15.8666V20.497H1.1333V23.697ZM17.4666 22.097V20.9364H14.2666V22.097H17.4666ZM15.8666 19.3364H1.1333V22.5364H15.8666V19.3364Z" fill="#BCBCBC" mask="url(#path-4-inside-2)"/>
</svg>
