<svg width="27" height="35" viewBox="0 0 27 35" fill="none" xmlns="http://www.w3.org/2000/svg">
<path d="M0.8 1.6C0.8 1.15817 1.15817 0.8 1.6 0.8H25.4C25.8418 0.8 26.2 1.15817 26.2 1.6V32.8667C26.2 33.3085 25.8418 33.6667 25.4 33.6667H1.6C1.15817 33.6667 0.8 33.3085 0.8 32.8667V1.6Z" stroke="#BCBCBC" stroke-width="1.6"/>
<mask id="path-2-inside-1" fill="white">
<ellipse cx="13.4999" cy="30.1584" rx="1.35" ry="1.43611"/>
</mask>
<ellipse cx="13.4999" cy="30.1584" rx="1.35" ry="1.43611" fill="white"/>
<path d="M13.2499 30.1584C13.2499 30.145 13.256 30.1129 13.2887 30.078C13.3231 30.0415 13.3977 29.9945 13.4999 29.9945V33.1945C15.2209 33.1945 16.4499 31.7406 16.4499 30.1584H13.2499ZM13.4999 29.9945C13.6021 29.9945 13.6767 30.0415 13.7111 30.078C13.7438 30.1129 13.7499 30.145 13.7499 30.1584H10.5499C10.5499 31.7406 11.7789 33.1945 13.4999 33.1945V29.9945ZM13.7499 30.1584C13.7499 30.1718 13.7438 30.2039 13.7111 30.2388C13.6767 30.2754 13.6021 30.3223 13.4999 30.3223V27.1223C11.7789 27.1223 10.5499 28.5762 10.5499 30.1584H13.7499ZM13.4999 30.3223C13.3977 30.3223 13.3231 30.2754 13.2887 30.2388C13.256 30.2039 13.2499 30.1718 13.2499 30.1584H16.4499C16.4499 28.5762 15.2209 27.1223 13.4999 27.1223V30.3223Z" fill="#BCBCBC" mask="url(#path-2-inside-1)"/>
<mask id="path-4-inside-2" fill="white">
<path fill-rule="evenodd" clip-rule="evenodd" d="M1.3501 25.85V27.2861H25.6501V25.85H1.3501Z"/>
</mask>
<path fill-rule="evenodd" clip-rule="evenodd" d="M1.3501 25.85V27.2861H25.6501V25.85H1.3501Z" fill="white"/>
<path d="M1.3501 25.85V24.25H-0.249902V25.85H1.3501ZM1.3501 27.2861H-0.249902V28.8861H1.3501V27.2861ZM25.6501 27.2861V28.8861H27.2501V27.2861H25.6501ZM25.6501 25.85H27.2501V24.25H25.6501V25.85ZM-0.249902 25.85V27.2861H2.9501V25.85H-0.249902ZM1.3501 28.8861H25.6501V25.6861H1.3501V28.8861ZM27.2501 27.2861V25.85H24.0501V27.2861H27.2501ZM25.6501 24.25H1.3501V27.45H25.6501V24.25Z" fill="#BCBCBC" mask="url(#path-4-inside-2)"/>
</svg>
