<svg width="27" height="35" viewBox="0 0 27 35" fill="none" xmlns="http://www.w3.org/2000/svg">
<path d="M0.8 1.6C0.8 1.15817 1.15817 0.8 1.6 0.8H25.4C25.8418 0.8 26.2 1.15817 26.2 1.6V32.8667C26.2 33.3085 25.8418 33.6667 25.4 33.6667H1.6C1.15817 33.6667 0.8 33.3085 0.8 32.8667V1.6Z" stroke="#F57B23" stroke-opacity="0.95" stroke-width="1.6"/>
<mask id="path-2-inside-1" fill="white">
<ellipse cx="13.5" cy="30.1583" rx="1.35" ry="1.43611"/>
</mask>
<ellipse cx="13.5" cy="30.1583" rx="1.35" ry="1.43611" fill="white"/>
<path d="M13.25 30.1583C13.25 30.1449 13.2561 30.1128 13.2888 30.0779C13.3232 30.0414 13.3978 29.9945 13.5 29.9945V33.1945C15.221 33.1945 16.45 31.7405 16.45 30.1583H13.25ZM13.5 29.9945C13.6022 29.9945 13.6768 30.0414 13.7112 30.0779C13.744 30.1128 13.75 30.1449 13.75 30.1583H10.55C10.55 31.7405 11.779 33.1945 13.5 33.1945V29.9945ZM13.75 30.1583C13.75 30.1717 13.744 30.2039 13.7112 30.2387C13.6768 30.2753 13.6022 30.3222 13.5 30.3222V27.1222C11.779 27.1222 10.55 28.5762 10.55 30.1583H13.75ZM13.5 30.3222C13.3978 30.3222 13.3232 30.2753 13.2888 30.2387C13.2561 30.2039 13.25 30.1717 13.25 30.1583H16.45C16.45 28.5762 15.221 27.1222 13.5 27.1222V30.3222Z" fill="#F57B23" fill-opacity="0.95" mask="url(#path-2-inside-1)"/>
<mask id="path-4-inside-2" fill="white">
<path fill-rule="evenodd" clip-rule="evenodd" d="M1.34998 25.85V27.2861H25.65V25.85H1.34998Z"/>
</mask>
<path fill-rule="evenodd" clip-rule="evenodd" d="M1.34998 25.85V27.2861H25.65V25.85H1.34998Z" fill="rgb(245, 123, 35)"/>
<path d="M1.34998 25.85V24.25H-0.250024V25.85H1.34998ZM1.34998 27.2861H-0.250024V28.8861H1.34998V27.2861ZM25.65 27.2861V28.8861H27.25V27.2861H25.65ZM25.65 25.85H27.25V24.25H25.65V25.85ZM-0.250024 25.85V27.2861H2.94998V25.85H-0.250024ZM1.34998 28.8861H25.65V25.6861H1.34998V28.8861ZM27.25 27.2861V25.85H24.05V27.2861H27.25ZM25.65 24.25H1.34998V27.45H25.65V24.25Z" fill="#F57B23" fill-opacity="0.95" mask="url(#path-4-inside-2)"/>
</svg>
